HIERARCHY
ROOT mixamorig:Hips
{
	OFFSET 0.000000 102.625267 -0.521241
	CHANNELS 6 Xposition Yposition Zposition Xrotation Yrotation Zrotation
	JOINT mixamorig:Spine
	{
		OFFSET 0.000000 5.645721 -0.031929
		CHANNELS 3 Xrotation Yrotation Zrotation
		JOINT mixamorig:Spine1
		{
			OFFSET 0.000000 6.586685 -0.037251
			CHANNELS 3 Xrotation Yrotation Zrotation
			JOINT mixamorig:Spine2
			{
				OFFSET 0.000000 7.527618 -0.042572
				CHANNELS 3 Xrotation Yrotation Zrotation
				JOINT mixamorig:Neck
				{
					OFFSET 0.000000 8.468590 -0.047894
					CHANNELS 3 Xrotation Yrotation Zrotation
					JOINT mixamorig:Head
					{
						OFFSET 0.000000 5.998901 -1.158958
						CHANNELS 3 Xrotation Yrotation Zrotation
						JOINT mixamorig:HeadTop_End
						{
							OFFSET 0.000000 21.748810 -4.201760
							CHANNELS 3 Xrotation Yrotation Zrotation
							End Site
							{
								OFFSET 0.000000 22.150970 0.000000
							}
						}
					}
				}
				JOINT mixamorig:LeftShoulder
				{
					OFFSET 3.414614 7.343132 -0.058928
					CHANNELS 3 Xrotation Yrotation Zrotation
					JOINT mixamorig:LeftArm
					{
						OFFSET 6.829548 -2.246910 -0.022071
						CHANNELS 3 Xrotation Yrotation Zrotation
						JOINT mixamorig:LeftForeArm
						{
							OFFSET 24.198503 -0.424179 0.257802
							CHANNELS 3 Xrotation Yrotation Zrotation
							JOINT mixamorig:LeftHand
							{
								OFFSET 21.584717 -0.002335 0.669575
								CHANNELS 3 Xrotation Yrotation Zrotation
								JOINT mixamorig:LeftHandThumb1
								{
									OFFSET 2.193897 -1.259628 1.956942
									CHANNELS 3 Xrotation Yrotation Zrotation
									JOINT mixamorig:LeftHandThumb2
									{
										OFFSET 1.755203 -1.007660 1.565605
										CHANNELS 3 Xrotation Yrotation Zrotation
										JOINT mixamorig:LeftHandThumb3
										{
											OFFSET 2.535126 -0.998764 1.490660
											CHANNELS 3 Xrotation Yrotation Zrotation
											JOINT mixamorig:LeftHandThumb4
											{
												OFFSET 2.398251 -0.721657 1.023775
												CHANNELS 3 Xrotation Yrotation Zrotation
												End Site
												{
													OFFSET 2.205696 -0.773872 1.362551
												}
											}
										}
									}
								}
								JOINT mixamorig:LeftHandIndex1
								{
									OFFSET 7.166248 -0.069405 2.369028
									CHANNELS 3 Xrotation Yrotation Zrotation
									JOINT mixamorig:LeftHandIndex2
									{
										OFFSET 2.989986 -0.015724 0.245918
										CHANNELS 3 Xrotation Yrotation Zrotation
										JOINT mixamorig:LeftHandIndex3
										{
											OFFSET 2.739197 -0.058952 0.219132
											CHANNELS 3 Xrotation Yrotation Zrotation
											JOINT mixamorig:LeftHandIndex4
											{
												OFFSET 2.326500 -0.032570 0.188458
												CHANNELS 3 Xrotation Yrotation Zrotation
												End Site
												{
													OFFSET 2.326485 -0.032578 0.188548
												}
											}
										}
									}
								}
								JOINT mixamorig:LeftHandMiddle1
								{
									OFFSET 7.394897 0.286369 0.654762
									CHANNELS 3 Xrotation Yrotation Zrotation
									JOINT mixamorig:LeftHandMiddle2
									{
										OFFSET 3.376106 0.152466 -0.003692
										CHANNELS 3 Xrotation Yrotation Zrotation
										JOINT mixamorig:LeftHandMiddle3
										{
											OFFSET 3.185104 -0.185410 -0.047914
											CHANNELS 3 Xrotation Yrotation Zrotation
											JOINT mixamorig:LeftHandMiddle4
											{
												OFFSET 2.742905 0.223846 0.010354
												CHANNELS 3 Xrotation Yrotation Zrotation
												End Site
												{
													OFFSET 2.742889 0.224251 0.006757
												}
											}
										}
									}
								}
								JOINT mixamorig:LeftHandRing1
								{
									OFFSET 7.508747 0.282753 -1.072900
									CHANNELS 3 Xrotation Yrotation Zrotation
									JOINT mixamorig:LeftHandRing2
									{
										OFFSET 2.821857 0.317802 -0.177266
										CHANNELS 3 Xrotation Yrotation Zrotation
										JOINT mixamorig:LeftHandRing3
										{
											OFFSET 2.672325 0.088310 -0.196165
											CHANNELS 3 Xrotation Yrotation Zrotation
											JOINT mixamorig:LeftHandRing4
											{
												OFFSET 2.272652 -0.053627 -0.183955
												CHANNELS 3 Xrotation Yrotation Zrotation
												End Site
												{
													OFFSET 2.272919 -0.054016 -0.180438
												}
											}
										}
									}
								}
								JOINT mixamorig:LeftHandPinky1
								{
									OFFSET 7.285820 0.522377 -2.660948
									CHANNELS 3 Xrotation Yrotation Zrotation
									JOINT mixamorig:LeftHandPinky2
									{
										OFFSET 2.466278 0.082008 -0.249570
										CHANNELS 3 Xrotation Yrotation Zrotation
										JOINT mixamorig:LeftHandPinky3
										{
											OFFSET 1.940475 0.021858 -0.202004
											CHANNELS 3 Xrotation Yrotation Zrotation
											JOINT mixamorig:LeftHandPinky4
											{
												OFFSET 1.645287 0.153595 -0.153405
												CHANNELS 3 Xrotation Yrotation Zrotation
												End Site
												{
													OFFSET 1.645088 0.153801 -0.155289
												}
											}
										}
									}
								}
							}
						}
					}
				}
				JOINT mixamorig:RightShoulder
				{
					OFFSET -3.414604 7.343132 -0.036860
					CHANNELS 3 Xrotation Yrotation Zrotation
					JOINT mixamorig:RightArm
					{
						OFFSET -6.829551 -2.246986 0.022068
						CHANNELS 3 Xrotation Yrotation Zrotation
						JOINT mixamorig:RightForeArm
						{
							OFFSET -24.198494 -0.424141 0.158696
							CHANNELS 3 Xrotation Yrotation Zrotation
							JOINT mixamorig:RightHand
							{
								OFFSET -21.584698 -0.002243 0.686977
								CHANNELS 3 Xrotation Yrotation Zrotation
								JOINT mixamorig:RightHandThumb1
								{
									OFFSET -2.242882 -1.296806 1.978855
									CHANNELS 3 Xrotation Yrotation Zrotation
									JOINT mixamorig:RightHandThumb2
									{
										OFFSET -1.794239 -1.037361 1.583064
										CHANNELS 3 Xrotation Yrotation Zrotation
										JOINT mixamorig:RightHandThumb3
										{
											OFFSET -2.504150 -0.962166 1.471556
											CHANNELS 3 Xrotation Yrotation Zrotation
											JOINT mixamorig:RightHandThumb4
											{
												OFFSET -2.346046 -0.743172 0.992235
												CHANNELS 3 Xrotation Yrotation Zrotation
												End Site
												{
													OFFSET -2.157112 -0.792709 1.326359
												}
											}
										}
									}
								}
								JOINT mixamorig:RightHandIndex1
								{
									OFFSET -7.174488 -0.001839 2.366265
									CHANNELS 3 Xrotation Yrotation Zrotation
									JOINT mixamorig:RightHandIndex2
									{
										OFFSET -2.935219 -0.016853 0.287245
										CHANNELS 3 Xrotation Yrotation Zrotation
										JOINT mixamorig:RightHandIndex3
										{
											OFFSET -2.786827 -0.129890 0.255971
											CHANNELS 3 Xrotation Yrotation Zrotation
											JOINT mixamorig:RightHandIndex4
											{
												OFFSET -2.343559 0.168816 0.256164
												CHANNELS 3 Xrotation Yrotation Zrotation
												End Site
												{
													OFFSET -2.344208 0.169510 0.249690
												}
											}
										}
									}
								}
								JOINT mixamorig:RightHandMiddle1
								{
									OFFSET -7.274693 0.327965 0.656181
									CHANNELS 3 Xrotation Yrotation Zrotation
									JOINT mixamorig:RightHandMiddle2
									{
										OFFSET -3.309677 0.091591 0.032863
										CHANNELS 3 Xrotation Yrotation Zrotation
										JOINT mixamorig:RightHandMiddle3
										{
											OFFSET -3.186844 -0.122513 0.000971
											CHANNELS 3 Xrotation Yrotation Zrotation
											JOINT mixamorig:RightHandMiddle4
											{
												OFFSET -2.671951 -0.322540 -0.031001
												CHANNELS 3 Xrotation Yrotation Zrotation
												End Site
												{
													OFFSET -2.671928 -0.323486 -0.021820
												}
											}
										}
									}
								}
								JOINT mixamorig:RightHandRing1
								{
									OFFSET -7.453640 0.430428 -1.170334
									CHANNELS 3 Xrotation Yrotation Zrotation
									JOINT mixamorig:RightHandRing2
									{
										OFFSET -2.808174 0.165817 -0.117934
										CHANNELS 3 Xrotation Yrotation Zrotation
										JOINT mixamorig:RightHandRing3
										{
											OFFSET -2.730080 0.127754 -0.119542
											CHANNELS 3 Xrotation Yrotation Zrotation
											JOINT mixamorig:RightHandRing4
											{
												OFFSET -2.349426 0.078133 -0.107466
												CHANNELS 3 Xrotation Yrotation Zrotation
												End Site
												{
													OFFSET -2.349503 0.077988 -0.106043
												}
											}
										}
									}
								}
								JOINT mixamorig:RightHandPinky1
								{
									OFFSET -7.364456 0.463486 -2.604800
									CHANNELS 3 Xrotation Yrotation Zrotation
									JOINT mixamorig:RightHandPinky2
									{
										OFFSET -2.430134 0.174614 -0.251330
										CHANNELS 3 Xrotation Yrotation Zrotation
										JOINT mixamorig:RightHandPinky3
										{
											OFFSET -1.953583 0.007492 -0.220999
											CHANNELS 3 Xrotation Yrotation Zrotation
											JOINT mixamorig:RightHandPinky4
											{
												OFFSET -1.582039 0.276558 -0.139972
												CHANNELS 3 Xrotation Yrotation Zrotation
												End Site
												{
													OFFSET -1.581284 0.277252 -0.147002
												}
											}
										}
									}
								}
							}
						}
					}
				}
			}
		}
	}
	JOINT mixamorig:LeftUpLeg
	{
		OFFSET 6.620181 -8.816864 -0.447179
		CHANNELS 3 Xrotation Yrotation Zrotation
		JOINT mixamorig:LeftLeg
		{
			OFFSET 2.748989 -36.076775 0.650871
			CHANNELS 3 Xrotation Yrotation Zrotation
			JOINT mixamorig:LeftFoot
			{
				OFFSET 1.089303 -46.239017 1.019056
				CHANNELS 3 Xrotation Yrotation Zrotation
				JOINT mixamorig:LeftToeBase
				{
					OFFSET -0.371088 -10.380511 12.650617
					CHANNELS 3 Xrotation Yrotation Zrotation
					JOINT mixamorig:LeftToe_End
					{
						OFFSET -0.094684 -0.116785 6.663326
						CHANNELS 3 Xrotation Yrotation Zrotation
						End Site
						{
							OFFSET -0.094684 -0.116785 6.663326
						}
					}
				}
			}
		}
	}
	JOINT mixamorig:RightUpLeg
	{
		OFFSET -6.620174 -8.816818 -0.447182
		CHANNELS 3 Xrotation Yrotation Zrotation
		JOINT mixamorig:RightLeg
		{
			OFFSET -2.748991 -36.076790 0.753614
			CHANNELS 3 Xrotation Yrotation Zrotation
			JOINT mixamorig:RightFoot
			{
				OFFSET -1.089311 -46.239029 0.372114
				CHANNELS 3 Xrotation Yrotation Zrotation
				JOINT mixamorig:RightToeBase
				{
					OFFSET 0.371103 -10.380659 13.284531
					CHANNELS 3 Xrotation Yrotation Zrotation
					JOINT mixamorig:RightToe_End
					{
						OFFSET 0.094689 -0.116865 6.675873
						CHANNELS 3 Xrotation Yrotation Zrotation
						End Site
						{
							OFFSET 0.094687 -0.116865 6.675871
						}
					}
				}
			}
		}
	}
}
MOTION
Frames: 4
Frame Time: 0.016667
-6.279268 85.096542 243.334076 -2.005427 7.112323 3.059359 7.228532 -15.939483 1.806263 2.533345 -7.664182 0.496107 2.496471 -7.676112 0.601870 5.813780 1.492613 -2.382665 -1.518062 7.715774 5.419248 -0.000002 -0.000001 0.000000 -0.319249 -11.174009 -22.883936 -21.036822 -37.357692 -8.872035 -1.812054 -61.542921 -2.067020 -41.705975 -9.895220 15.631692 9.775935 16.357231 0.858838 6.054003 27.805347 -18.599824 -6.037771 60.816298 17.106987 0.000002 -0.000002 -0.000002 17.472850 9.224760 -83.155764 23.312537 4.675904 -117.724102 21.566952 6.194453 -108.116765 -0.000001 -0.000000 -0.000000 11.592366 8.281160 -86.537691 16.149764 12.965012 -105.880329 18.073345 11.765586 -118.360949 0.000000 -0.000002 0.000001 4.991183 7.872689 -92.729551 10.803494 17.923617 -103.552648 10.498646 17.411856 -100.924917 0.000003 0.000000 -0.000002 1.243714 8.584931 -92.369928 8.659884 15.362660 -98.315696 16.024886 19.714779 -130.655454 -0.000000 0.000001 -0.000001 0.352989 5.780371 21.092563 24.337274 28.850637 42.712359 -175.929226 76.366767 175.802198 -22.386833 -6.364783 -11.370135 7.289186 -17.786642 4.440297 20.544483 -23.758767 7.065908 17.377552 -52.365312 9.460125 0.000002 0.000000 0.000001 19.275856 -8.774055 82.782405 22.821863 -2.963194 115.997704 22.107936 -3.322690 114.153990 -0.000002 0.000000 0.000001 11.485763 -7.534574 85.331206 16.189411 -11.109612 107.924031 15.949318 -10.923141 105.235163 0.000000 0.000000 -0.000003 4.330909 -7.313592 92.054332 11.183956 -15.225723 101.327414 11.710478 -15.181035 103.581048 -0.000001 0.000000 -0.000002 -3.765932 -7.773560 94.669468 6.267354 -18.769746 95.066965 14.996433 -19.450033 135.720094 0.000000 -0.000000 -0.000003 13.163723 22.390530 6.864949 40.751702 6.522726 10.219379 -25.596796 2.961447 -13.519887 -17.887712 0.952936 -6.829396 0.000001 -0.000002 0.000001 -54.037964 4.248403 -1.029121 71.512572 6.243920 -8.294749 -17.552423 14.201057 17.983789 -0.001198 -0.000013 -0.000005 0.000000 -0.000001 0.000000 
-6.107062 84.849518 243.300705 -1.711624 4.937755 3.061962 7.287254 -16.069547 1.822286 2.569226 -7.736999 0.528201 2.535366 -7.747505 0.633900 5.800215 1.962966 -2.871404 -3.006775 9.834973 5.048376 0.000000 -0.000002 0.000001 -0.304278 -11.153282 -22.701607 -20.511306 -39.234574 -7.745184 -1.306811 -53.148615 -1.643165 -41.397319 -9.074381 16.469087 9.775937 16.357222 0.858850 6.053999 27.805360 -18.599826 -6.037764 60.816305 17.106986 0.000000 0.000001 0.000003 17.472855 9.224744 -83.155770 23.312535 4.675917 -117.724089 21.566958 6.194457 -108.116786 -0.000000 -0.000002 0.000002 11.592375 8.281168 -86.537718 16.149771 12.965009 -105.880329 18.073360 11.765587 -118.360936 0.000001 -0.000002 -0.000000 4.991176 7.872687 -92.729551 10.803502 17.923632 -103.552655 10.498666 17.411851 -100.924911 0.000000 0.000002 -0.000001 1.243710 8.584923 -92.369935 8.659907 15.362660 -98.315703 16.024903 19.714779 -130.655440 0.000000 -0.000001 0.000000 0.378115 5.666688 20.397281 26.870355 28.019234 42.308528 -175.341283 78.030287 175.229364 -23.936229 -6.007362 -11.497077 7.289153 -17.786646 4.440305 20.544494 -23.758784 7.065909 17.377555 -52.365288 9.460142 0.000003 -0.000003 -0.000001 19.275853 -8.774064 82.782405 22.821866 -2.963185 115.997704 22.107926 -3.322709 114.153969 0.000000 -0.000000 -0.000001 11.485750 -7.534587 85.331199 16.189403 -11.109600 107.924031 15.949327 -10.923144 105.235156 -0.000001 0.000000 -0.000000 4.330905 -7.313592 92.054305 11.183953 -15.225687 101.327379 11.710468 -15.181040 103.581035 -0.000001 -0.000000 0.000002 -3.765953 -7.773544 94.669468 6.267341 -18.769754 95.066958 14.996427 -19.450038 135.720080 -0.000000 0.000000 0.000002 12.821631 23.104034 6.104281 42.126131 6.920129 10.148830 -25.088144 3.193931 -13.897229 -18.749002 1.004612 -7.004893 0.000000 -0.000001 0.000000 -55.073434 4.572859 -0.094609 71.934145 6.349054 -8.279432 -17.266938 15.375087 17.744830 -0.000980 -0.000008 -0.000009 0.000000 -0.000003 -0.000000 
-5.854017 84.570938 243.208038 -1.368033 2.568957 3.211530 7.423490 -15.349587 1.961074 2.651242 -7.416751 0.605695 2.617936 -7.426855 0.704464 5.682094 2.205379 -3.466540 -4.826275 10.952653 4.042667 0.000001 -0.000000 -0.000001 -0.302207 -11.143381 -22.688107 -21.617721 -39.541297 -8.595785 -1.185251 -50.461294 -1.548455 -41.045178 -7.498314 17.060178 9.775924 16.357226 0.858867 6.053993 27.805324 -18.599828 -6.037806 60.816305 17.107028 0.000003 0.000003 0.000001 17.472847 9.224747 -83.155757 23.312532 4.675915 -117.724102 21.566961 6.194449 -108.116792 -0.000002 -0.000002 -0.000001 11.592374 8.281173 -86.537677 16.149764 12.964994 -105.880336 18.073340 11.765586 -118.360977 -0.000001 -0.000001 0.000005 4.991168 7.872685 -92.729531 10.803490 17.923624 -103.552635 10.498652 17.411839 -100.924904 -0.000004 0.000002 -0.000004 1.243701 8.584942 -92.369921 8.659900 15.362653 -98.315717 16.024884 19.714772 -130.655454 -0.000000 -0.000000 0.000004 0.399886 5.549952 19.821229 28.138341 26.617823 41.714301 -174.917948 78.999662 174.814771 -25.729343 -5.554543 -11.604599 7.289170 -17.786654 4.440302 20.544480 -23.758772 7.065914 17.377559 -52.365281 9.460122 -0.000000 0.000001 0.000000 19.275835 -8.774064 82.782405 22.821873 -2.963216 115.997731 22.107920 -3.322711 114.153976 -0.000002 0.000003 -0.000002 11.485758 -7.534562 85.331206 16.189396 -11.109613 107.924010 15.949316 -10.923142 105.235170 0.000002 -0.000001 -0.000003 4.330902 -7.313580 92.054332 11.183915 -15.225707 101.327366 11.710481 -15.181050 103.581055 -0.000000 0.000001 -0.000003 -3.765955 -7.773553 94.669461 6.267340 -18.769744 95.066944 14.996440 -19.450033 135.720094 -0.000001 -0.000001 0.000004 12.226674 23.278407 5.467927 44.219410 7.087503 9.490742 -24.450759 3.287811 -14.175755 -19.568545 1.025122 -7.077291 0.000000 0.000003 -0.000000 -56.223064 5.147795 0.726780 72.198467 6.465724 -8.272837 -16.840923 16.600889 17.586043 -0.000700 0.000004 -0.000005 0.000000 -0.000002 0.000001 
-5.545256 84.271828 243.068771 -1.001150 0.277328 3.359859 7.704668 -14.017604 2.241991 2.787188 -6.813657 0.742757 2.754437 -6.823285 0.832506 5.361760 2.232875 -3.928324 -6.731446 11.203625 2.768568 0.000000 0.000000 -0.000000 -0.296092 -11.088407 -22.692518 -24.244132 -38.741871 -11.411131 -1.265140 -52.263125 -1.610288 -39.297142 -4.742200 17.424146 9.775926 16.357231 0.858853 6.054009 27.805343 -18.599835 -6.037770 60.816305 17.107008 -0.000004 -0.000001 0.000001 17.472850 9.224733 -83.155784 23.312534 4.675922 -117.724075 21.566951 6.194457 -108.116745 -0.000000 -0.000003 0.000001 11.592377 8.281165 -86.537691 16.149750 12.964987 -105.880322 18.073336 11.765608 -118.360922 0.000002 -0.000001 0.000000 4.991185 7.872708 -92.729565 10.803495 17.923615 -103.552635 10.498663 17.411865 -100.924952 0.000000 -0.000000 0.000003 1.243702 8.584925 -92.369928 8.659898 15.362658 -98.315703 16.024903 19.714766 -130.655467 0.000001 -0.000000 0.000004 0.404816 5.509773 19.749181 28.497907 23.966236 41.220099 -174.990212 78.845347 174.885641 -27.778180 -5.002720 -11.682613 7.289180 -17.786634 4.440321 20.544490 -23.758765 7.065911 17.377569 -52.365315 9.460130 0.000002 -0.000001 0.000001 19.275846 -8.774052 82.782412 22.821853 -2.963183 115.997731 22.107932 -3.322705 114.153983 -0.000001 -0.000000 0.000003 11.485745 -7.534575 85.331213 16.189382 -11.109617 107.924017 15.949318 -10.923150 105.235156 0.000001 0.000000 -0.000000 4.330903 -7.313591 92.054312 11.183952 -15.225689 101.327400 11.710494 -15.181031 103.581082 0.000000 -0.000003 0.000002 -3.765931 -7.773537 94.669489 6.267337 -18.769730 95.066965 14.996432 -19.450043 135.720107 0.000001 0.000002 0.000001 11.527858 23.018685 5.057907 46.512209 6.965676 8.439543 -23.853512 3.245081 -14.279584 -20.289026 1.035231 -7.122148 -0.000000 -0.000002 0.000000 -57.417302 5.689525 1.527032 72.397239 6.569173 -8.269789 -16.345555 17.725782 17.416332 -0.000626 0.000007 -0.000008 0.000000 0.000000 0.000001 
